<?xml version="1.0" encoding="UTF-8" standalone="no"?>
<!DOCTYPE svg PUBLIC "-//W3C//DTD SVG 1.1//EN" "http://www.w3.org/Graphics/SVG/1.1/DTD/svg11.dtd">
<!-- Created with Vectornator (http://vectornator.io/) -->
<svg height="100%" stroke-miterlimit="10" style="fill-rule:nonzero;clip-rule:evenodd;stroke-linecap:round;stroke-linejoin:round;" version="1.1" viewBox="0 0 900 450" width="100%" xml:space="preserve" xmlns="http://www.w3.org/2000/svg" xmlns:xlink="http://www.w3.org/1999/xlink">
<defs/>
<g id="Untitled">
<path d="M0 0L900 0L900 0L900 450L900 450L0 450L0 450L0 0L0 0Z" fill="#ce1720" fill-rule="nonzero" opacity="1" stroke="none"/>
<path d="M5 0L105 0L105 450L5 450L5 0Z" fill="#ffffff" fill-rule="nonzero" opacity="1" stroke="none"/>
</g>
<g id="a">
<path d="M57.2 0L57.2 16.3L52.8 16.3L52.8 0L57.2 0ZM1 28.5L8.9 28.5L8.9 22L12.9 22L12.9 14.1L18.5 14.1L18.5 7.2L23.1 7.2L23.1 0L37 0L37 7.2L41.5 7.2L41.5 14.1L47.1 14.1L47.1 22L51.1 22L51.1 28.5L57.2 28.5L57.2 38.6L51.1 38.6L51.1 45.1L47.1 45.1L47.1 53L41.5 53L41.5 59.9L37 59.9L37 67.3L33.8 67.3L33.8 73.5L26.3 73.5L26.3 67.3L23.1 67.3L23.1 59.9L18.5 59.9L18.5 53L12.9 53L12.9 45.1L8.9 45.1L8.9 38.6L1 38.6M1 3.4L8.9 3.4L8.9 12.4L1 12.4M32 15.1L27.9 15.1L27.9 21.2L24 21.2L24 28.9L20.2 28.9L20.2 38.4L24 38.4L24 46.1L27.9 46.1L27.9 52.1L32 52.1L32 46.1L35.9 46.1L35.9 38.4L39.8 38.4L39.8 28.9L35.9 28.9L35.9 21.2L32 21.2L32 15.1ZM32.4 29L32.4 38L27.5 38L27.5 29L32.4 29ZM1 52.6L8.9 52.6L8.9 62.3L1 62.3M57.2 53.5L57.2 67.2L52.8 67.2L52.8 53.5L57.2 53.5ZM46.4 68.7L46.4 75.5L51.2 75.5L51.2 82.5L57.2 82.5L57.2 91.7L51.2 91.7L51.2 98.8L46.4 98.8L46.4 105.6L40.8 105.6L40.8 98.8L36 98.8L36 91.7L32 91.7L32 82.5L36 82.5L36 75.5L40.8 75.5L40.8 68.7L46.4 68.7ZM1 82.5L8.9 82.5L8.9 75.5L13.7 75.5L13.7 68.7L19.2 68.7L19.2 75.5L24 75.5L24 82.5L28 82.5L28 91.7L24 91.7L24 98.8L19.2 98.8L19.2 105.6L13.7 105.6L13.7 98.8L8.9 98.8L8.9 91.7L1 91.7M45.7 82.7L41.6 82.7L41.6 91.4L45.7 91.4L45.7 82.7ZM18.6 82.7L14.5 82.7L14.5 91.4L18.6 91.4L18.6 82.7ZM20.2 226.8L20.2 222.1L16.8 222.1L16.8 215L12.3 215L12.3 210.7L8.9 210.7L8.9 203.8L1 203.8L1 187.8L8.9 187.8L8.9 192.4L12.3 192.4L12.3 199.1L16.8 199.1L16.8 207.1L23.2 207.1L23.2 199.9L27.9 199.9L27.9 194.6L31.3 194.6L31.3 188.3L35.8 188.3L35.8 181.6L39.1 181.6L39.1 174.8L42.3 174.8L42.3 167.8L46.6 167.8L46.6 158.4L40.9 158.4L40.9 149.9L34.7 149.9L34.7 144.8L24.3 144.8L24.3 152.2L30.3 152.2L30.3 158.9L26.3 158.9L26.3 167.1L21.6 167.1L21.6 174.3L15.7 174.3L15.7 167.1L10.8 167.1L10.8 158.9L7.8 158.9L7.8 152.2L1 152.2L1 139.5L8.9 139.5L8.9 131.3L11.9 131.3L11.9 125L14.7 125L14.7 117.8L18.7 117.8L18.7 110.7L22.6 110.7L22.6 106L27.3 106L27.3 98.9L33 98.9L33 106L37.7 106L37.7 110.7L41.7 110.7L41.7 117.8L45.6 117.8L45.6 125L48.8 125L48.8 131.2L52 131.2L52 136.6L57.2 136.6L57.2 176.3L51.3 176.3L51.3 183L49.6 183L49.6 190L45.2 190L45.2 196.8L42.5 196.8L42.5 201.8L39.7 201.8L39.7 207.1L34.9 207.1L34.9 212.3L28 212.3L28 226.8M57.2 105.5L57.2 119.2L52.8 119.2L52.8 105.5L57.2 105.5ZM1 108.1L8.9 108.1L8.9 117.8L1 117.8M1 166.4L8.9 166.4L8.9 176.1L1 176.1L1 166.4ZM57 191L57 199.8L52.8 199.8L52.8 191L57 191ZM51.2 226.8L51.2 221.3L48.6 221.3L48.6 217L44.8 217L44.8 204.1L48.6 204.1L48.6 209.3L52.6 209.3L52.6 216.9L57 216.9L57 226.7M35.6 226.7L35.6 220.3L39.8 220.3L39.8 226.7" fill="#ce1720" fill-rule="nonzero" opacity="1" stroke="none"/>
<path d="M52.8 0L52.8 16.3L57.2 16.3L57.2 0L52.8 0ZM109 28.5L101.1 28.5L101.1 22L97.1 22L97.1 14.1L91.5 14.1L91.5 7.2L86.9 7.2L86.9 0L73 0L73 7.2L68.5 7.2L68.5 14.1L62.9 14.1L62.9 22L58.9 22L58.9 28.5L52.8 28.5L52.8 38.6L58.9 38.6L58.9 45.1L62.9 45.1L62.9 53L68.5 53L68.5 59.9L73 59.9L73 67.3L76.2 67.3L76.2 73.5L83.7 73.5L83.7 67.3L86.9 67.3L86.9 59.9L91.5 59.9L91.5 53L97.1 53L97.1 45.1L101.1 45.1L101.1 38.6L109 38.6M109 3.4L101.1 3.4L101.1 12.4L109 12.4M78 15.1L82.1 15.1L82.1 21.2L86 21.2L86 28.9L89.8 28.9L89.8 38.4L86 38.4L86 46.1L82.1 46.1L82.1 52.1L78 52.1L78 46.1L74.1 46.1L74.1 38.4L70.2 38.4L70.2 28.9L74.1 28.9L74.1 21.2L78 21.2L78 15.1ZM77.6 29L77.6 38L82.5 38L82.5 29L77.6 29ZM109 52.6L101.1 52.6L101.1 62.3L109 62.3M52.8 53.5L52.8 67.2L57.2 67.2L57.2 53.5L52.8 53.5ZM63.6 68.7L63.6 75.5L58.8 75.5L58.8 82.5L52.8 82.5L52.8 91.7L58.8 91.7L58.8 98.8L63.6 98.8L63.6 105.6L69.2 105.6L69.2 98.8L74 98.8L74 91.7L78 91.7L78 82.5L74 82.5L74 75.5L69.2 75.5L69.2 68.7L63.6 68.7ZM109 82.5L101.1 82.5L101.1 75.5L96.3 75.5L96.3 68.7L90.8 68.7L90.8 75.5L86 75.5L86 82.5L82 82.5L82 91.7L86 91.7L86 98.8L90.8 98.8L90.8 105.6L96.3 105.6L96.3 98.8L101.1 98.8L101.1 91.7L109 91.7M64.3 82.7L68.4 82.7L68.4 91.4L64.3 91.4L64.3 82.7ZM91.4 82.7L95.5 82.7L95.5 91.4L91.4 91.4L91.4 82.7ZM89.8 226.8L89.8 222.1L93.2 222.1L93.2 215L97.7 215L97.7 210.7L101.1 210.7L101.1 203.8L109 203.8L109 187.8L101.1 187.8L101.1 192.4L97.7 192.4L97.7 199.1L93.2 199.1L93.2 207.1L86.8 207.1L86.8 199.9L82.1 199.9L82.1 194.6L78.7 194.6L78.7 188.3L74.2 188.3L74.2 181.6L70.9 181.6L70.9 174.8L67.7 174.8L67.7 167.8L63.4 167.8L63.4 158.4L69.1 158.4L69.1 149.9L75.3 149.9L75.3 144.8L85.7 144.8L85.7 152.2L79.7 152.2L79.7 158.9L83.7 158.9L83.7 167.1L88.4 167.1L88.4 174.3L94.3 174.3L94.3 167.1L99.2 167.1L99.2 158.9L102.2 158.9L102.2 152.2L109 152.2L109 139.5L101.1 139.5L101.1 131.3L98.1 131.3L98.1 125L95.3 125L95.3 117.8L91.3 117.8L91.3 110.7L87.4 110.7L87.4 106L82.7 106L82.7 98.9L77 98.9L77 106L72.3 106L72.3 110.7L68.3 110.7L68.3 117.8L64.4 117.8L64.4 125L61.2 125L61.2 131.2L58 131.2L58 136.6L52.8 136.6L52.8 176.3L58.7 176.3L58.7 183L60.4 183L60.4 190L64.8 190L64.8 196.8L67.5 196.8L67.5 201.8L70.3 201.8L70.3 207.1L75.1 207.1L75.1 212.3L82 212.3L82 226.8M52.8 105.5L52.8 119.2L57.2 119.2L57.2 105.5L52.8 105.5ZM109 108.1L101.1 108.1L101.1 117.8L109 117.8M109 166.4L101.1 166.4L101.1 176.1L109 176.1L109 166.4ZM53 191L53 199.8L57.2 199.8L57.2 191L53 191ZM58.8 226.8L58.8 221.3L61.4 221.3L61.4 217L65.2 217L65.2 204.1L61.4 204.1L61.4 209.3L57.4 209.3L57.4 216.9L53 216.9L53 226.7M74.4 226.7L74.4 220.3L70.2 220.3L70.2 226.7" fill="#ce1720" fill-rule="nonzero" opacity="1" stroke="none"/>
</g>
<g id="Untitled_2">
<g opacity="1">
<path d="M57.2 450L57.2 433.7L52.8 433.7L52.8 450L57.2 450ZM1 421.5L8.9 421.5L8.9 428L12.9 428L12.9 435.9L18.5 435.9L18.5 442.8L23.1 442.8L23.1 450L37 450L37 442.8L41.5 442.8L41.5 435.9L47.1 435.9L47.1 428L51.1 428L51.1 421.5L57.2 421.5L57.2 411.4L51.1 411.4L51.1 404.9L47.1 404.9L47.1 397L41.5 397L41.5 390.1L37 390.1L37 382.7L33.8 382.7L33.8 376.5L26.3 376.5L26.3 382.7L23.1 382.7L23.1 390.1L18.5 390.1L18.5 397L12.9 397L12.9 404.9L8.9 404.9L8.9 411.4L1 411.4M1 446.6L8.9 446.6L8.9 437.6L1 437.6M32 434.9L27.9 434.9L27.9 428.8L24 428.8L24 421.1L20.2 421.1L20.2 411.6L24 411.6L24 403.9L27.9 403.9L27.9 397.9L32 397.9L32 403.9L35.9 403.9L35.9 411.6L39.8 411.6L39.8 421.1L35.9 421.1L35.9 428.8L32 428.8L32 434.9ZM32.4 421L32.4 412L27.5 412L27.5 421L32.4 421ZM1 397.4L8.9 397.4L8.9 387.7L1 387.7M57.2 396.5L57.2 382.8L52.8 382.8L52.8 396.5L57.2 396.5ZM46.4 381.3L46.4 374.5L51.2 374.5L51.2 367.5L57.2 367.5L57.2 358.3L51.2 358.3L51.2 351.2L46.4 351.2L46.4 344.4L40.8 344.4L40.8 351.2L36 351.2L36 358.3L32 358.3L32 367.5L36 367.5L36 374.5L40.8 374.5L40.8 381.3L46.4 381.3ZM1 367.5L8.9 367.5L8.9 374.5L13.7 374.5L13.7 381.3L19.2 381.3L19.2 374.5L24 374.5L24 367.5L28 367.5L28 358.3L24 358.3L24 351.2L19.2 351.2L19.2 344.4L13.7 344.4L13.7 351.2L8.9 351.2L8.9 358.3L1 358.3M45.7 367.3L41.6 367.3L41.6 358.6L45.7 358.6L45.7 367.3ZM18.6 367.3L14.5 367.3L14.5 358.6L18.6 358.6L18.6 367.3ZM20.2 223.2L20.2 227.9L16.8 227.9L16.8 235L12.3 235L12.3 239.3L8.9 239.3L8.9 246.2L1 246.2L1 262.2L8.9 262.2L8.9 257.6L12.3 257.6L12.3 250.9L16.8 250.9L16.8 242.9L23.2 242.9L23.2 250.1L27.9 250.1L27.9 255.4L31.3 255.4L31.3 261.7L35.8 261.7L35.8 268.4L39.1 268.4L39.1 275.2L42.3 275.2L42.3 282.2L46.6 282.2L46.6 291.6L40.9 291.6L40.9 300.1L34.7 300.1L34.7 305.2L24.3 305.2L24.3 297.8L30.3 297.8L30.3 291.1L26.3 291.1L26.3 282.9L21.6 282.9L21.6 275.7L15.7 275.7L15.7 282.9L10.8 282.9L10.8 291.1L7.8 291.1L7.8 297.8L1 297.8L1 310.5L8.9 310.5L8.9 318.7L11.9 318.7L11.9 325L14.7 325L14.7 332.2L18.7 332.2L18.7 339.3L22.6 339.3L22.6 344L27.3 344L27.3 351.1L33 351.1L33 344L37.7 344L37.7 339.3L41.7 339.3L41.7 332.2L45.6 332.2L45.6 325L48.8 325L48.8 318.8L52 318.8L52 313.4L57.2 313.4L57.2 273.7L51.3 273.7L51.3 267L49.6 267L49.6 260L45.2 260L45.2 253.2L42.5 253.2L42.5 248.2L39.7 248.2L39.7 242.9L34.9 242.9L34.9 237.7L28 237.7L28 223.2M57.2 344.5L57.2 330.8L52.8 330.8L52.8 344.5L57.2 344.5ZM1 341.9L8.9 341.9L8.9 332.2L1 332.2M1 283.6L8.9 283.6L8.9 273.9L1 273.9L1 283.6ZM57 259L57 250.2L52.8 250.2L52.8 259L57 259ZM51.2 223.2L51.2 228.7L48.6 228.7L48.6 233L44.8 233L44.8 245.9L48.6 245.9L48.6 240.7L52.6 240.7L52.6 233.1L57 233.1L57 223.3M35.6 223.3L35.6 229.7L39.8 229.7L39.8 223.3" fill="#ce1720" fill-rule="nonzero" opacity="1" stroke="none"/>
<path d="M52.8 450L52.8 433.7L57.2 433.7L57.2 450L52.8 450ZM109 421.5L101.1 421.5L101.1 428L97.1 428L97.1 435.9L91.5 435.9L91.5 442.8L86.9 442.8L86.9 450L73 450L73 442.8L68.5 442.8L68.5 435.9L62.9 435.9L62.9 428L58.9 428L58.9 421.5L52.8 421.5L52.8 411.4L58.9 411.4L58.9 404.9L62.9 404.9L62.9 397L68.5 397L68.5 390.1L73 390.1L73 382.7L76.2 382.7L76.2 376.5L83.7 376.5L83.7 382.7L86.9 382.7L86.9 390.1L91.5 390.1L91.5 397L97.1 397L97.1 404.9L101.1 404.9L101.1 411.4L109 411.4M109 446.6L101.1 446.6L101.1 437.6L109 437.6M78 434.9L82.1 434.9L82.1 428.8L86 428.8L86 421.1L89.8 421.1L89.8 411.6L86 411.6L86 403.9L82.1 403.9L82.1 397.9L78 397.9L78 403.9L74.1 403.9L74.1 411.6L70.2 411.6L70.2 421.1L74.1 421.1L74.1 428.8L78 428.8L78 434.9ZM77.6 421L77.6 412L82.5 412L82.5 421L77.6 421ZM109 397.4L101.1 397.4L101.1 387.7L109 387.7M52.8 396.5L52.8 382.8L57.2 382.8L57.2 396.5L52.8 396.5ZM63.6 381.3L63.6 374.5L58.8 374.5L58.8 367.5L52.8 367.5L52.8 358.3L58.8 358.3L58.8 351.2L63.6 351.2L63.6 344.4L69.2 344.4L69.2 351.2L74 351.2L74 358.3L78 358.3L78 367.5L74 367.5L74 374.5L69.2 374.5L69.2 381.3L63.6 381.3ZM109 367.5L101.1 367.5L101.1 374.5L96.3 374.5L96.3 381.3L90.8 381.3L90.8 374.5L86 374.5L86 367.5L82 367.5L82 358.3L86 358.3L86 351.2L90.8 351.2L90.8 344.4L96.3 344.4L96.3 351.2L101.1 351.2L101.1 358.3L109 358.3M64.3 367.3L68.4 367.3L68.4 358.6L64.3 358.6L64.3 367.3ZM91.4 367.3L95.5 367.3L95.5 358.6L91.4 358.6L91.4 367.3ZM89.8 223.2L89.8 227.9L93.2 227.9L93.2 235L97.7 235L97.7 239.3L101.1 239.3L101.1 246.2L109 246.2L109 262.2L101.1 262.2L101.1 257.6L97.7 257.6L97.7 250.9L93.2 250.9L93.2 242.9L86.8 242.9L86.8 250.1L82.1 250.1L82.1 255.4L78.7 255.4L78.7 261.7L74.2 261.7L74.2 268.4L70.9 268.4L70.9 275.2L67.7 275.2L67.7 282.2L63.4 282.2L63.4 291.6L69.1 291.6L69.1 300.1L75.3 300.1L75.3 305.2L85.7 305.2L85.7 297.8L79.7 297.8L79.7 291.1L83.7 291.1L83.7 282.9L88.4 282.9L88.4 275.7L94.3 275.7L94.3 282.9L99.2 282.9L99.2 291.1L102.2 291.1L102.2 297.8L109 297.8L109 310.5L101.1 310.5L101.1 318.7L98.1 318.7L98.1 325L95.3 325L95.3 332.2L91.3 332.2L91.3 339.3L87.4 339.3L87.4 344L82.7 344L82.7 351.1L77 351.1L77 344L72.3 344L72.3 339.3L68.3 339.3L68.3 332.2L64.4 332.2L64.4 325L61.2 325L61.2 318.8L58 318.8L58 313.4L52.8 313.4L52.8 273.7L58.7 273.7L58.7 267L60.4 267L60.4 260L64.8 260L64.8 253.2L67.5 253.2L67.5 248.2L70.3 248.2L70.3 242.9L75.1 242.9L75.1 237.7L82 237.7L82 223.2M52.8 344.5L52.8 330.8L57.2 330.8L57.2 344.5L52.8 344.5ZM109 341.9L101.1 341.9L101.1 332.2L109 332.2M109 283.6L101.1 283.6L101.1 273.9L109 273.9L109 283.6ZM53 259L53 250.2L57.2 250.2L57.2 259L53 259ZM58.8 223.2L58.8 228.7L61.4 228.7L61.4 233L65.2 233L65.2 245.9L61.4 245.9L61.4 240.7L57.4 240.7L57.4 233.1L53 233.1L53 223.3M74.4 223.3L74.4 229.7L70.2 229.7L70.2 223.3" fill="#ce1720" fill-rule="nonzero" opacity="1" stroke="none"/>
</g>
<path d="M105 300L900 300L900 450L105 450L105 300Z" fill="#007c30" fill-rule="nonzero" opacity="1" stroke="none"/>
</g>
</svg>
